<mxfile host="app.diagrams.net" modified="2023-07-22T17:24:37.375Z" agent="Mozilla/5.0 (Windows NT 10.0; Win64; x64) AppleWebKit/537.36 (KHTML, like Gecko) Chrome/114.0.0.0 Safari/537.36" etag="pDudHUEoteg5w0kgdX9A" version="21.6.5" type="google">
  <diagram name="Page-1" id="5f0bae14-7c28-e335-631c-24af17079c00">
    <mxGraphModel grid="1" page="1" gridSize="10" guides="1" tooltips="1" connect="1" arrows="1" fold="1" pageScale="1" pageWidth="3300" pageHeight="2339" background="none" math="0" shadow="0">
      <root>
        <mxCell id="0" />
        <mxCell id="1" parent="0" />
        <mxCell id="39150e848f15840c-5" value="Usuario.HTML" style="shape=component;align=left;spacingLeft=36;rounded=0;shadow=0;comic=0;labelBackgroundColor=none;strokeWidth=1;fontFamily=Verdana;fontSize=12;html=1;" vertex="1" parent="1">
          <mxGeometry x="70" y="30" width="120" height="60" as="geometry" />
        </mxCell>
        <mxCell id="39150e848f15840c-7" value="Venta.JAVA" style="shape=component;align=left;spacingLeft=36;rounded=0;shadow=0;comic=0;labelBackgroundColor=none;strokeWidth=1;fontFamily=Verdana;fontSize=12;html=1;" vertex="1" parent="1">
          <mxGeometry x="640" y="150" width="120" height="60" as="geometry" />
        </mxCell>
        <mxCell id="39150e848f15840c-10" value="Validar Usuario" style="shape=component;align=left;spacingLeft=36;rounded=0;shadow=0;comic=0;labelBackgroundColor=none;strokeWidth=1;fontFamily=Verdana;fontSize=12;html=1;" vertex="1" parent="1">
          <mxGeometry x="500" y="410" width="140" height="60" as="geometry" />
        </mxCell>
        <mxCell id="39150e848f15840c-14" style="edgeStyle=elbowEdgeStyle;rounded=0;html=1;labelBackgroundColor=none;startArrow=none;startFill=0;startSize=8;endArrow=none;endFill=0;endSize=16;fontFamily=Verdana;fontSize=12;entryX=1;entryY=0.5;entryDx=0;entryDy=0;" edge="1" parent="1" target="39150e848f15840c-5">
          <mxGeometry relative="1" as="geometry">
            <mxPoint x="320" y="440" as="sourcePoint" />
            <mxPoint x="200" y="75" as="targetPoint" />
            <Array as="points">
              <mxPoint x="250" y="250" />
            </Array>
          </mxGeometry>
        </mxCell>
        <mxCell id="39150e848f15840c-18" style="edgeStyle=orthogonalEdgeStyle;rounded=0;html=1;labelBackgroundColor=none;startArrow=none;startFill=0;startSize=8;endArrow=none;endFill=0;endSize=16;fontFamily=Verdana;fontSize=12;entryX=1;entryY=0.5;entryDx=0;entryDy=0;" edge="1" parent="1">
          <mxGeometry relative="1" as="geometry">
            <Array as="points">
              <mxPoint x="250" y="440" />
              <mxPoint x="250" y="610" />
            </Array>
            <mxPoint x="370" y="440" as="sourcePoint" />
            <mxPoint x="120" y="610" as="targetPoint" />
          </mxGeometry>
        </mxCell>
        <mxCell id="7NCgJ4RFR02j8C5epK9_-1" value="Pedidos.HTML" style="shape=component;align=left;spacingLeft=36;rounded=0;shadow=0;comic=0;labelBackgroundColor=none;strokeWidth=1;fontFamily=Verdana;fontSize=12;html=1;" vertex="1" parent="1">
          <mxGeometry x="70" y="120" width="120" height="60" as="geometry" />
        </mxCell>
        <mxCell id="7NCgJ4RFR02j8C5epK9_-2" value="Venta.HTML" style="shape=component;align=left;spacingLeft=36;rounded=0;shadow=0;comic=0;labelBackgroundColor=none;strokeWidth=1;fontFamily=Verdana;fontSize=12;html=1;" vertex="1" parent="1">
          <mxGeometry x="70" y="230" width="120" height="60" as="geometry" />
        </mxCell>
        <mxCell id="7NCgJ4RFR02j8C5epK9_-3" value="Compra.HTML" style="shape=component;align=left;spacingLeft=36;rounded=0;shadow=0;comic=0;labelBackgroundColor=none;strokeWidth=1;fontFamily=Verdana;fontSize=12;html=1;" vertex="1" parent="1">
          <mxGeometry x="70" y="350" width="120" height="60" as="geometry" />
        </mxCell>
        <mxCell id="7NCgJ4RFR02j8C5epK9_-4" value="Productos.HTML" style="shape=component;align=left;spacingLeft=36;rounded=0;shadow=0;comic=0;labelBackgroundColor=none;strokeWidth=1;fontFamily=Verdana;fontSize=12;html=1;" vertex="1" parent="1">
          <mxGeometry x="50" y="460" width="140" height="60" as="geometry" />
        </mxCell>
        <mxCell id="7NCgJ4RFR02j8C5epK9_-5" value="Envios.HTML" style="shape=component;align=left;spacingLeft=36;rounded=0;shadow=0;comic=0;labelBackgroundColor=none;strokeWidth=1;fontFamily=Verdana;fontSize=12;html=1;" vertex="1" parent="1">
          <mxGeometry x="60" y="580" width="120" height="60" as="geometry" />
        </mxCell>
        <mxCell id="7NCgJ4RFR02j8C5epK9_-6" value="&lt;h3&gt;&lt;b&gt;&lt;font style=&quot;font-size: 18px;&quot; face=&quot;Times New Roman&quot;&gt;Presentacion&lt;/font&gt;&lt;/b&gt;&lt;/h3&gt;" style="text;html=1;strokeColor=none;fillColor=none;align=center;verticalAlign=middle;whiteSpace=wrap;rounded=0;fontColor=#0000CC;" vertex="1" parent="1">
          <mxGeometry x="190" y="-40" width="60" height="30" as="geometry" />
        </mxCell>
        <mxCell id="7NCgJ4RFR02j8C5epK9_-7" style="edgeStyle=elbowEdgeStyle;rounded=0;html=1;labelBackgroundColor=none;startArrow=none;startFill=0;startSize=8;endArrow=none;endFill=0;endSize=16;fontFamily=Verdana;fontSize=12;entryX=1;entryY=0.5;entryDx=0;entryDy=0;" edge="1" parent="1" target="7NCgJ4RFR02j8C5epK9_-1">
          <mxGeometry relative="1" as="geometry">
            <mxPoint x="250" y="200" as="sourcePoint" />
            <mxPoint x="200" y="70" as="targetPoint" />
          </mxGeometry>
        </mxCell>
        <mxCell id="7NCgJ4RFR02j8C5epK9_-9" style="edgeStyle=elbowEdgeStyle;rounded=0;html=1;labelBackgroundColor=none;startArrow=none;startFill=0;startSize=8;endArrow=none;endFill=0;endSize=16;fontFamily=Verdana;fontSize=12;entryX=1;entryY=0.5;entryDx=0;entryDy=0;" edge="1" parent="1">
          <mxGeometry relative="1" as="geometry">
            <mxPoint x="250" y="310" as="sourcePoint" />
            <mxPoint x="190" y="260" as="targetPoint" />
          </mxGeometry>
        </mxCell>
        <mxCell id="7NCgJ4RFR02j8C5epK9_-10" style="edgeStyle=elbowEdgeStyle;rounded=0;html=1;labelBackgroundColor=none;startArrow=none;startFill=0;startSize=8;endArrow=none;endFill=0;endSize=16;fontFamily=Verdana;fontSize=12;entryX=1;entryY=0.5;entryDx=0;entryDy=0;" edge="1" parent="1">
          <mxGeometry relative="1" as="geometry">
            <mxPoint x="250" y="400" as="sourcePoint" />
            <mxPoint x="190" y="380" as="targetPoint" />
          </mxGeometry>
        </mxCell>
        <mxCell id="7NCgJ4RFR02j8C5epK9_-11" style="edgeStyle=elbowEdgeStyle;rounded=0;html=1;labelBackgroundColor=none;startArrow=none;startFill=0;startSize=8;endArrow=none;endFill=0;endSize=16;fontFamily=Verdana;fontSize=12;entryX=1;entryY=0.5;entryDx=0;entryDy=0;" edge="1" parent="1">
          <mxGeometry relative="1" as="geometry">
            <mxPoint x="250" y="520" as="sourcePoint" />
            <mxPoint x="190" y="490" as="targetPoint" />
          </mxGeometry>
        </mxCell>
        <mxCell id="7NCgJ4RFR02j8C5epK9_-12" value="" style="shape=providedRequiredInterface;html=1;verticalLabelPosition=bottom;sketch=0;rotation=-180;" vertex="1" parent="1">
          <mxGeometry x="370" y="420" width="30" height="40" as="geometry" />
        </mxCell>
        <mxCell id="7NCgJ4RFR02j8C5epK9_-14" style="edgeStyle=orthogonalEdgeStyle;rounded=0;html=1;labelBackgroundColor=none;startArrow=none;startFill=0;startSize=8;endArrow=none;endFill=0;endSize=16;fontFamily=Verdana;fontSize=12;exitX=-0.033;exitY=0.675;exitDx=0;exitDy=0;exitPerimeter=0;entryX=0.083;entryY=0.5;entryDx=0;entryDy=0;entryPerimeter=0;" edge="1" parent="1" source="7NCgJ4RFR02j8C5epK9_-12" target="39150e848f15840c-10">
          <mxGeometry relative="1" as="geometry">
            <Array as="points">
              <mxPoint x="401" y="440" />
            </Array>
            <mxPoint x="420" y="430" as="sourcePoint" />
            <mxPoint x="500" y="340" as="targetPoint" />
          </mxGeometry>
        </mxCell>
        <mxCell id="7NCgJ4RFR02j8C5epK9_-15" value="" style="shape=providedRequiredInterface;html=1;verticalLabelPosition=bottom;sketch=0;rotation=-180;" vertex="1" parent="1">
          <mxGeometry x="555" y="540" width="30" height="40" as="geometry" />
        </mxCell>
        <mxCell id="7NCgJ4RFR02j8C5epK9_-16" value="" style="shape=providedRequiredInterface;html=1;verticalLabelPosition=bottom;sketch=0;rotation=-180;" vertex="1" parent="1">
          <mxGeometry x="555" y="300" width="30" height="40" as="geometry" />
        </mxCell>
        <mxCell id="7NCgJ4RFR02j8C5epK9_-18" style="edgeStyle=orthogonalEdgeStyle;rounded=0;html=1;labelBackgroundColor=none;startArrow=none;startFill=0;startSize=8;endArrow=none;endFill=0;endSize=16;fontFamily=Verdana;fontSize=12;entryX=0.5;entryY=1;entryDx=0;entryDy=0;" edge="1" parent="1" target="39150e848f15840c-10">
          <mxGeometry relative="1" as="geometry">
            <Array as="points">
              <mxPoint x="570" y="520" />
              <mxPoint x="570" y="520" />
            </Array>
            <mxPoint x="570" y="540" as="sourcePoint" />
            <mxPoint x="715" y="310" as="targetPoint" />
          </mxGeometry>
        </mxCell>
        <mxCell id="7NCgJ4RFR02j8C5epK9_-19" value="" style="shape=providedRequiredInterface;html=1;verticalLabelPosition=bottom;sketch=0;rotation=-180;" vertex="1" parent="1">
          <mxGeometry x="710" y="420" width="30" height="40" as="geometry" />
        </mxCell>
        <mxCell id="7NCgJ4RFR02j8C5epK9_-20" style="edgeStyle=orthogonalEdgeStyle;rounded=0;html=1;labelBackgroundColor=none;startArrow=none;startFill=0;startSize=8;endArrow=none;endFill=0;endSize=16;fontFamily=Verdana;fontSize=12;exitX=-0.033;exitY=0.675;exitDx=0;exitDy=0;exitPerimeter=0;entryX=1;entryY=0.5;entryDx=0;entryDy=0;entryPerimeter=0;" edge="1" parent="1" target="7NCgJ4RFR02j8C5epK9_-19">
          <mxGeometry relative="1" as="geometry">
            <Array as="points">
              <mxPoint x="640" y="444" />
              <mxPoint x="710" y="444" />
            </Array>
            <mxPoint x="640" y="436.5" as="sourcePoint" />
            <mxPoint x="751" y="443.5" as="targetPoint" />
          </mxGeometry>
        </mxCell>
        <mxCell id="7NCgJ4RFR02j8C5epK9_-21" value="" style="line;strokeWidth=2;html=1;rotation=90;fontColor=#000066;" vertex="1" parent="1">
          <mxGeometry x="918.75" y="378.75" width="1002.5" height="10" as="geometry" />
        </mxCell>
        <mxCell id="7NCgJ4RFR02j8C5epK9_-22" value="&lt;h3&gt;&lt;b&gt;&lt;font style=&quot;font-size: 18px;&quot; face=&quot;Times New Roman&quot;&gt;Negocio&lt;/font&gt;&lt;/b&gt;&lt;/h3&gt;" style="text;html=1;strokeColor=none;fillColor=none;align=center;verticalAlign=middle;whiteSpace=wrap;rounded=0;fontColor=#0000CC;" vertex="1" parent="1">
          <mxGeometry x="840" y="-40" width="60" height="30" as="geometry" />
        </mxCell>
        <mxCell id="7NCgJ4RFR02j8C5epK9_-23" style="edgeStyle=orthogonalEdgeStyle;rounded=0;html=1;labelBackgroundColor=none;startArrow=none;startFill=0;startSize=8;endArrow=none;endFill=0;endSize=16;fontFamily=Verdana;fontSize=12;exitX=-0.033;exitY=0.675;exitDx=0;exitDy=0;exitPerimeter=0;entryX=1;entryY=0.5;entryDx=0;entryDy=0;entryPerimeter=0;" edge="1" parent="1">
          <mxGeometry relative="1" as="geometry">
            <Array as="points">
              <mxPoint x="740" y="443.72" />
              <mxPoint x="810" y="443.72" />
            </Array>
            <mxPoint x="740" y="436.22" as="sourcePoint" />
            <mxPoint x="810" y="439.72" as="targetPoint" />
          </mxGeometry>
        </mxCell>
        <mxCell id="7NCgJ4RFR02j8C5epK9_-24" value="Compra.JAVA" style="shape=component;align=left;spacingLeft=36;rounded=0;shadow=0;comic=0;labelBackgroundColor=none;strokeWidth=1;fontFamily=Verdana;fontSize=12;html=1;" vertex="1" parent="1">
          <mxGeometry x="800" y="410" width="140" height="60" as="geometry" />
        </mxCell>
        <mxCell id="7NCgJ4RFR02j8C5epK9_-25" style="edgeStyle=orthogonalEdgeStyle;rounded=0;html=1;labelBackgroundColor=none;startArrow=none;startFill=0;startSize=8;endArrow=none;endFill=0;endSize=16;fontFamily=Verdana;fontSize=12;entryX=0.5;entryY=1;entryDx=0;entryDy=0;" edge="1" parent="1">
          <mxGeometry relative="1" as="geometry">
            <Array as="points">
              <mxPoint x="569.5" y="390" />
              <mxPoint x="569.5" y="390" />
            </Array>
            <mxPoint x="569.5" y="410" as="sourcePoint" />
            <mxPoint x="569.5" y="340" as="targetPoint" />
          </mxGeometry>
        </mxCell>
        <mxCell id="7NCgJ4RFR02j8C5epK9_-26" style="edgeStyle=orthogonalEdgeStyle;rounded=0;html=1;labelBackgroundColor=none;startArrow=none;startFill=0;startSize=8;endArrow=none;endFill=0;endSize=16;fontFamily=Verdana;fontSize=12;entryX=0.108;entryY=0.517;entryDx=0;entryDy=0;entryPerimeter=0;" edge="1" parent="1" target="39150e848f15840c-7">
          <mxGeometry relative="1" as="geometry">
            <Array as="points">
              <mxPoint x="570" y="181" />
            </Array>
            <mxPoint x="569.5" y="295" as="sourcePoint" />
            <mxPoint x="569.5" y="225" as="targetPoint" />
          </mxGeometry>
        </mxCell>
        <mxCell id="7NCgJ4RFR02j8C5epK9_-27" value="" style="shape=providedRequiredInterface;html=1;verticalLabelPosition=bottom;sketch=0;rotation=-180;" vertex="1" parent="1">
          <mxGeometry x="680" y="70" width="30" height="40" as="geometry" />
        </mxCell>
        <mxCell id="7NCgJ4RFR02j8C5epK9_-28" style="edgeStyle=orthogonalEdgeStyle;rounded=0;html=1;labelBackgroundColor=none;startArrow=none;startFill=0;startSize=8;endArrow=none;endFill=0;endSize=16;fontFamily=Verdana;fontSize=12;entryX=0.5;entryY=0.05;entryDx=0;entryDy=0;entryPerimeter=0;" edge="1" parent="1" target="7NCgJ4RFR02j8C5epK9_-27">
          <mxGeometry relative="1" as="geometry">
            <Array as="points">
              <mxPoint x="697" y="108" />
            </Array>
            <mxPoint x="696.5" y="150" as="sourcePoint" />
            <mxPoint x="710" y="30" as="targetPoint" />
          </mxGeometry>
        </mxCell>
        <mxCell id="7NCgJ4RFR02j8C5epK9_-33" value="Envio.JAVA" style="shape=component;align=left;spacingLeft=36;rounded=0;shadow=0;comic=0;labelBackgroundColor=none;strokeWidth=1;fontFamily=Verdana;fontSize=12;html=1;" vertex="1" parent="1">
          <mxGeometry x="740" width="120" height="60" as="geometry" />
        </mxCell>
        <mxCell id="7NCgJ4RFR02j8C5epK9_-35" style="edgeStyle=elbowEdgeStyle;rounded=0;html=1;labelBackgroundColor=none;startArrow=none;startFill=0;startSize=8;endArrow=none;endFill=0;endSize=16;fontFamily=Verdana;fontSize=12;exitX=0.5;exitY=1;exitDx=0;exitDy=0;exitPerimeter=0;entryX=0.092;entryY=0.5;entryDx=0;entryDy=0;entryPerimeter=0;" edge="1" parent="1" source="7NCgJ4RFR02j8C5epK9_-27" target="7NCgJ4RFR02j8C5epK9_-33">
          <mxGeometry relative="1" as="geometry">
            <mxPoint x="700" y="60" as="sourcePoint" />
            <mxPoint x="695" y="-10" as="targetPoint" />
            <Array as="points">
              <mxPoint x="690" y="40" />
            </Array>
          </mxGeometry>
        </mxCell>
        <mxCell id="7NCgJ4RFR02j8C5epK9_-37" style="edgeStyle=orthogonalEdgeStyle;rounded=0;html=1;labelBackgroundColor=none;startArrow=none;startFill=0;startSize=8;endArrow=none;endFill=0;endSize=16;fontFamily=Verdana;fontSize=12;entryX=0.5;entryY=1;entryDx=0;entryDy=0;" edge="1" parent="1" source="7NCgJ4RFR02j8C5epK9_-97">
          <mxGeometry relative="1" as="geometry">
            <Array as="points">
              <mxPoint x="569.5" y="690" />
            </Array>
            <mxPoint x="569.5" y="650" as="sourcePoint" />
            <mxPoint x="569.5" y="580" as="targetPoint" />
          </mxGeometry>
        </mxCell>
        <mxCell id="7NCgJ4RFR02j8C5epK9_-38" value="Subasta.JAVA" style="shape=component;align=left;spacingLeft=36;rounded=0;shadow=0;comic=0;labelBackgroundColor=none;strokeWidth=1;fontFamily=Verdana;fontSize=12;html=1;" vertex="1" parent="1">
          <mxGeometry x="490" y="690" width="140" height="60" as="geometry" />
        </mxCell>
        <mxCell id="7NCgJ4RFR02j8C5epK9_-39" value="Usuario.JAVA" style="shape=component;align=left;spacingLeft=36;rounded=0;shadow=0;comic=0;labelBackgroundColor=none;strokeWidth=1;fontFamily=Verdana;fontSize=12;html=1;" vertex="1" parent="1">
          <mxGeometry x="790" y="300" width="140" height="60" as="geometry" />
        </mxCell>
        <mxCell id="7NCgJ4RFR02j8C5epK9_-40" value="Envio.JAVA" style="shape=component;align=left;spacingLeft=36;rounded=0;shadow=0;comic=0;labelBackgroundColor=none;strokeWidth=1;fontFamily=Verdana;fontSize=12;html=1;" vertex="1" parent="1">
          <mxGeometry x="810" y="580" width="140" height="50" as="geometry" />
        </mxCell>
        <mxCell id="7NCgJ4RFR02j8C5epK9_-41" value="Pedido.JAVA&lt;br&gt;" style="shape=component;align=left;spacingLeft=36;rounded=0;shadow=0;comic=0;labelBackgroundColor=none;strokeWidth=1;fontFamily=Verdana;fontSize=12;html=1;" vertex="1" parent="1">
          <mxGeometry x="860" y="80" width="140" height="60" as="geometry" />
        </mxCell>
        <mxCell id="7NCgJ4RFR02j8C5epK9_-42" value="Pedido.JAVA&lt;br&gt;" style="shape=component;align=left;spacingLeft=36;rounded=0;shadow=0;comic=0;labelBackgroundColor=none;strokeWidth=1;fontFamily=Verdana;fontSize=12;html=1;" vertex="1" parent="1">
          <mxGeometry x="790" y="790" width="140" height="60" as="geometry" />
        </mxCell>
        <mxCell id="7NCgJ4RFR02j8C5epK9_-43" value="" style="shape=providedRequiredInterface;html=1;verticalLabelPosition=bottom;sketch=0;rotation=-180;" vertex="1" parent="1">
          <mxGeometry x="640" y="800" width="30" height="40" as="geometry" />
        </mxCell>
        <mxCell id="7NCgJ4RFR02j8C5epK9_-44" style="edgeStyle=orthogonalEdgeStyle;rounded=0;html=1;labelBackgroundColor=none;startArrow=none;startFill=0;startSize=8;endArrow=none;endFill=0;endSize=16;fontFamily=Verdana;fontSize=12;entryX=0.112;entryY=0.489;entryDx=0;entryDy=0;entryPerimeter=0;exitX=0;exitY=0.5;exitDx=0;exitDy=0;exitPerimeter=0;" edge="1" parent="1" source="7NCgJ4RFR02j8C5epK9_-43" target="7NCgJ4RFR02j8C5epK9_-42">
          <mxGeometry relative="1" as="geometry">
            <Array as="points" />
            <mxPoint x="708.67" y="840" as="sourcePoint" />
            <mxPoint x="708.67" y="770" as="targetPoint" />
          </mxGeometry>
        </mxCell>
        <mxCell id="7NCgJ4RFR02j8C5epK9_-46" style="edgeStyle=orthogonalEdgeStyle;rounded=0;html=1;labelBackgroundColor=none;startArrow=none;startFill=0;startSize=8;endArrow=none;endFill=0;endSize=16;fontFamily=Verdana;fontSize=12;entryX=0.112;entryY=0.489;entryDx=0;entryDy=0;entryPerimeter=0;exitX=0.5;exitY=1;exitDx=0;exitDy=0;" edge="1" parent="1" source="7NCgJ4RFR02j8C5epK9_-38">
          <mxGeometry relative="1" as="geometry">
            <Array as="points">
              <mxPoint x="560" y="819" />
            </Array>
            <mxPoint x="502" y="820.23" as="sourcePoint" />
            <mxPoint x="638" y="819.23" as="targetPoint" />
          </mxGeometry>
        </mxCell>
        <mxCell id="7NCgJ4RFR02j8C5epK9_-47" value="" style="shape=providedRequiredInterface;html=1;verticalLabelPosition=bottom;sketch=0;rotation=-180;" vertex="1" parent="1">
          <mxGeometry x="720" y="520" width="30" height="40" as="geometry" />
        </mxCell>
        <mxCell id="7NCgJ4RFR02j8C5epK9_-51" style="edgeStyle=orthogonalEdgeStyle;rounded=0;html=1;labelBackgroundColor=none;startArrow=none;startFill=0;startSize=8;endArrow=none;endFill=0;endSize=16;fontFamily=Verdana;fontSize=12;entryX=0.112;entryY=0.493;entryDx=0;entryDy=0;entryPerimeter=0;exitX=0.5;exitY=1;exitDx=0;exitDy=0;" edge="1" parent="1" target="7NCgJ4RFR02j8C5epK9_-40">
          <mxGeometry relative="1" as="geometry">
            <Array as="points">
              <mxPoint x="732" y="605" />
            </Array>
            <mxPoint x="732" y="560.77" as="sourcePoint" />
            <mxPoint x="810" y="630" as="targetPoint" />
          </mxGeometry>
        </mxCell>
        <mxCell id="7NCgJ4RFR02j8C5epK9_-52" style="edgeStyle=orthogonalEdgeStyle;rounded=0;html=1;labelBackgroundColor=none;startArrow=none;startFill=0;startSize=8;endArrow=none;endFill=0;endSize=16;fontFamily=Verdana;fontSize=12;entryX=0;entryY=0.5;entryDx=0;entryDy=0;entryPerimeter=0;exitX=0.5;exitY=1;exitDx=0;exitDy=0;" edge="1" parent="1" target="7NCgJ4RFR02j8C5epK9_-47">
          <mxGeometry relative="1" as="geometry">
            <Array as="points">
              <mxPoint x="870" y="540" />
              <mxPoint x="750" y="540" />
            </Array>
            <mxPoint x="870" y="470.77" as="sourcePoint" />
            <mxPoint x="948" y="540" as="targetPoint" />
          </mxGeometry>
        </mxCell>
        <mxCell id="7NCgJ4RFR02j8C5epK9_-53" value="" style="shape=providedRequiredInterface;html=1;verticalLabelPosition=bottom;sketch=0;rotation=-180;" vertex="1" parent="1">
          <mxGeometry x="700" y="310" width="30" height="40" as="geometry" />
        </mxCell>
        <mxCell id="7NCgJ4RFR02j8C5epK9_-54" style="edgeStyle=orthogonalEdgeStyle;rounded=0;html=1;labelBackgroundColor=none;startArrow=none;startFill=0;startSize=8;endArrow=none;endFill=0;endSize=16;fontFamily=Verdana;fontSize=12;exitX=-0.033;exitY=0.675;exitDx=0;exitDy=0;exitPerimeter=0;entryX=1;entryY=0.5;entryDx=0;entryDy=0;entryPerimeter=0;" edge="1" parent="1">
          <mxGeometry relative="1" as="geometry">
            <Array as="points">
              <mxPoint x="730" y="333.75" />
              <mxPoint x="800" y="333.75" />
            </Array>
            <mxPoint x="730" y="326.25" as="sourcePoint" />
            <mxPoint x="800" y="329.75" as="targetPoint" />
          </mxGeometry>
        </mxCell>
        <mxCell id="7NCgJ4RFR02j8C5epK9_-57" style="edgeStyle=orthogonalEdgeStyle;rounded=0;html=1;labelBackgroundColor=none;startArrow=none;startFill=0;startSize=8;endArrow=none;endFill=0;endSize=16;fontFamily=Verdana;fontSize=12;entryX=0.112;entryY=0.493;entryDx=0;entryDy=0;entryPerimeter=0;exitX=1;exitY=0.5;exitDx=0;exitDy=0;exitPerimeter=0;" edge="1" parent="1" source="7NCgJ4RFR02j8C5epK9_-53">
          <mxGeometry relative="1" as="geometry">
            <Array as="points">
              <mxPoint x="690" y="330" />
              <mxPoint x="690" y="410" />
            </Array>
            <mxPoint x="523" y="365.7" as="sourcePoint" />
            <mxPoint x="617" y="409.93" as="targetPoint" />
          </mxGeometry>
        </mxCell>
        <mxCell id="7NCgJ4RFR02j8C5epK9_-58" value="" style="shape=providedRequiredInterface;html=1;verticalLabelPosition=bottom;sketch=0;rotation=-180;" vertex="1" parent="1">
          <mxGeometry x="900" y="200" width="30" height="40" as="geometry" />
        </mxCell>
        <mxCell id="7NCgJ4RFR02j8C5epK9_-59" style="edgeStyle=orthogonalEdgeStyle;rounded=0;html=1;labelBackgroundColor=none;startArrow=none;startFill=0;startSize=8;endArrow=none;endFill=0;endSize=16;fontFamily=Verdana;fontSize=12;entryX=0.678;entryY=0.017;entryDx=0;entryDy=0;entryPerimeter=0;" edge="1" parent="1" target="7NCgJ4RFR02j8C5epK9_-58">
          <mxGeometry relative="1" as="geometry">
            <Array as="points">
              <mxPoint x="860" y="239" />
            </Array>
            <mxPoint x="860" y="300" as="sourcePoint" />
            <mxPoint x="860" y="230" as="targetPoint" />
          </mxGeometry>
        </mxCell>
        <mxCell id="7NCgJ4RFR02j8C5epK9_-60" style="edgeStyle=orthogonalEdgeStyle;rounded=0;html=1;labelBackgroundColor=none;startArrow=none;startFill=0;startSize=8;endArrow=none;endFill=0;endSize=16;fontFamily=Verdana;fontSize=12;entryX=0.5;entryY=1;entryDx=0;entryDy=0;" edge="1" parent="1" target="7NCgJ4RFR02j8C5epK9_-41">
          <mxGeometry relative="1" as="geometry">
            <Array as="points">
              <mxPoint x="914" y="140" />
            </Array>
            <mxPoint x="914" y="200" as="sourcePoint" />
            <mxPoint x="914.3299999999999" y="130" as="targetPoint" />
          </mxGeometry>
        </mxCell>
        <mxCell id="7NCgJ4RFR02j8C5epK9_-61" value="Productos.JAVA" style="shape=component;align=left;spacingLeft=36;rounded=0;shadow=0;comic=0;labelBackgroundColor=none;strokeWidth=1;fontFamily=Verdana;fontSize=12;html=1;" vertex="1" parent="1">
          <mxGeometry x="1190" y="410" width="140" height="60" as="geometry" />
        </mxCell>
        <mxCell id="7NCgJ4RFR02j8C5epK9_-62" value="" style="shape=providedRequiredInterface;html=1;verticalLabelPosition=bottom;sketch=0;rotation=-180;" vertex="1" parent="1">
          <mxGeometry x="1050" y="420" width="30" height="40" as="geometry" />
        </mxCell>
        <mxCell id="7NCgJ4RFR02j8C5epK9_-64" style="edgeStyle=elbowEdgeStyle;rounded=0;html=1;labelBackgroundColor=none;startArrow=none;startFill=0;startSize=8;endArrow=none;endFill=0;endSize=16;fontFamily=Verdana;fontSize=12;entryX=1;entryY=0.5;entryDx=0;entryDy=0;exitX=0.098;exitY=0.467;exitDx=0;exitDy=0;exitPerimeter=0;" edge="1" parent="1" source="7NCgJ4RFR02j8C5epK9_-61">
          <mxGeometry relative="1" as="geometry">
            <mxPoint x="1140" y="460" as="sourcePoint" />
            <mxPoint x="1080" y="440" as="targetPoint" />
          </mxGeometry>
        </mxCell>
        <mxCell id="7NCgJ4RFR02j8C5epK9_-66" style="edgeStyle=elbowEdgeStyle;rounded=0;html=1;labelBackgroundColor=none;startArrow=none;startFill=0;startSize=8;endArrow=none;endFill=0;endSize=16;fontFamily=Verdana;fontSize=12;entryX=1;entryY=0.5;entryDx=0;entryDy=0;" edge="1" parent="1">
          <mxGeometry relative="1" as="geometry">
            <mxPoint x="1050" y="440" as="sourcePoint" />
            <mxPoint x="940" y="440" as="targetPoint" />
          </mxGeometry>
        </mxCell>
        <mxCell id="7NCgJ4RFR02j8C5epK9_-67" style="edgeStyle=elbowEdgeStyle;rounded=0;html=1;labelBackgroundColor=none;startArrow=none;startFill=0;startSize=8;endArrow=none;endFill=0;endSize=16;fontFamily=Verdana;fontSize=12;entryX=1;entryY=0.5;entryDx=0;entryDy=0;exitX=1;exitY=0.5;exitDx=0;exitDy=0;" edge="1" parent="1" source="7NCgJ4RFR02j8C5epK9_-42" target="7NCgJ4RFR02j8C5epK9_-33">
          <mxGeometry relative="1" as="geometry">
            <mxPoint x="1630" y="720" as="sourcePoint" />
            <mxPoint x="740" y="25" as="targetPoint" />
            <Array as="points">
              <mxPoint x="1020" y="400" />
            </Array>
          </mxGeometry>
        </mxCell>
        <mxCell id="7NCgJ4RFR02j8C5epK9_-68" value="" style="line;strokeWidth=2;html=1;rotation=90;fontColor=#000066;" vertex="1" parent="1">
          <mxGeometry x="-43.12" y="396.88" width="966.25" height="10" as="geometry" />
        </mxCell>
        <mxCell id="7NCgJ4RFR02j8C5epK9_-85" style="edgeStyle=orthogonalEdgeStyle;rounded=0;orthogonalLoop=1;jettySize=auto;html=1;exitX=1;exitY=0.5;exitDx=0;exitDy=0;entryX=0;entryY=0.3;entryDx=0;entryDy=0;" edge="1" parent="1" source="7NCgJ4RFR02j8C5epK9_-69" target="7NCgJ4RFR02j8C5epK9_-84">
          <mxGeometry relative="1" as="geometry" />
        </mxCell>
        <mxCell id="7NCgJ4RFR02j8C5epK9_-69" value="CompraDAO.Java" style="shape=component;align=left;spacingLeft=36;rounded=0;shadow=0;comic=0;labelBackgroundColor=none;strokeWidth=1;fontFamily=Verdana;fontSize=12;html=1;" vertex="1" parent="1">
          <mxGeometry x="1620" y="150" width="140" height="60" as="geometry" />
        </mxCell>
        <mxCell id="7NCgJ4RFR02j8C5epK9_-86" style="edgeStyle=orthogonalEdgeStyle;rounded=0;orthogonalLoop=1;jettySize=auto;html=1;exitX=1;exitY=0.5;exitDx=0;exitDy=0;" edge="1" parent="1" source="7NCgJ4RFR02j8C5epK9_-70" target="7NCgJ4RFR02j8C5epK9_-84">
          <mxGeometry relative="1" as="geometry" />
        </mxCell>
        <mxCell id="7NCgJ4RFR02j8C5epK9_-70" value="VentaDAO.Java" style="shape=component;align=left;spacingLeft=36;rounded=0;shadow=0;comic=0;labelBackgroundColor=none;strokeWidth=1;fontFamily=Verdana;fontSize=12;html=1;" vertex="1" parent="1">
          <mxGeometry x="1630" y="410" width="140" height="60" as="geometry" />
        </mxCell>
        <mxCell id="7NCgJ4RFR02j8C5epK9_-87" style="edgeStyle=orthogonalEdgeStyle;rounded=0;orthogonalLoop=1;jettySize=auto;html=1;exitX=1;exitY=0.5;exitDx=0;exitDy=0;entryX=0;entryY=0.7;entryDx=0;entryDy=0;" edge="1" parent="1" source="7NCgJ4RFR02j8C5epK9_-71" target="7NCgJ4RFR02j8C5epK9_-84">
          <mxGeometry relative="1" as="geometry" />
        </mxCell>
        <mxCell id="7NCgJ4RFR02j8C5epK9_-71" value="PedidosDAO.Java" style="shape=component;align=left;spacingLeft=36;rounded=0;shadow=0;comic=0;labelBackgroundColor=none;strokeWidth=1;fontFamily=Verdana;fontSize=12;html=1;" vertex="1" parent="1">
          <mxGeometry x="1630" y="630" width="140" height="60" as="geometry" />
        </mxCell>
        <mxCell id="7NCgJ4RFR02j8C5epK9_-72" value="" style="shape=providedRequiredInterface;html=1;verticalLabelPosition=bottom;sketch=0;rotation=-180;" vertex="1" parent="1">
          <mxGeometry x="1500" y="160" width="30" height="40" as="geometry" />
        </mxCell>
        <mxCell id="7NCgJ4RFR02j8C5epK9_-73" value="" style="shape=providedRequiredInterface;html=1;verticalLabelPosition=bottom;sketch=0;rotation=-180;" vertex="1" parent="1">
          <mxGeometry x="1500" y="420" width="30" height="40" as="geometry" />
        </mxCell>
        <mxCell id="7NCgJ4RFR02j8C5epK9_-74" value="" style="shape=providedRequiredInterface;html=1;verticalLabelPosition=bottom;sketch=0;rotation=-180;" vertex="1" parent="1">
          <mxGeometry x="1500" y="640" width="30" height="40" as="geometry" />
        </mxCell>
        <mxCell id="7NCgJ4RFR02j8C5epK9_-75" style="edgeStyle=elbowEdgeStyle;rounded=0;html=1;labelBackgroundColor=none;startArrow=none;startFill=0;startSize=8;endArrow=none;endFill=0;endSize=16;fontFamily=Verdana;fontSize=12;entryX=0.5;entryY=1;entryDx=0;entryDy=0;exitX=1;exitY=0.5;exitDx=0;exitDy=0;exitPerimeter=0;" edge="1" parent="1" source="7NCgJ4RFR02j8C5epK9_-74" target="7NCgJ4RFR02j8C5epK9_-61">
          <mxGeometry relative="1" as="geometry">
            <mxPoint x="1500" y="630" as="sourcePoint" />
            <mxPoint x="1376" y="632" as="targetPoint" />
            <Array as="points">
              <mxPoint x="1260" y="570" />
            </Array>
          </mxGeometry>
        </mxCell>
        <mxCell id="7NCgJ4RFR02j8C5epK9_-76" style="edgeStyle=elbowEdgeStyle;rounded=0;html=1;labelBackgroundColor=none;startArrow=none;startFill=0;startSize=8;endArrow=none;endFill=0;endSize=16;fontFamily=Verdana;fontSize=12;entryX=1;entryY=0.5;entryDx=0;entryDy=0;exitX=1;exitY=0.475;exitDx=0;exitDy=0;exitPerimeter=0;" edge="1" parent="1" source="7NCgJ4RFR02j8C5epK9_-73">
          <mxGeometry relative="1" as="geometry">
            <mxPoint x="1490" y="441" as="sourcePoint" />
            <mxPoint x="1330" y="441" as="targetPoint" />
          </mxGeometry>
        </mxCell>
        <mxCell id="7NCgJ4RFR02j8C5epK9_-79" style="edgeStyle=elbowEdgeStyle;rounded=0;html=1;labelBackgroundColor=none;startArrow=none;startFill=0;startSize=8;endArrow=none;endFill=0;endSize=16;fontFamily=Verdana;fontSize=12;" edge="1" parent="1">
          <mxGeometry relative="1" as="geometry">
            <mxPoint x="1640" y="439.33" as="sourcePoint" />
            <mxPoint x="1530" y="440" as="targetPoint" />
          </mxGeometry>
        </mxCell>
        <mxCell id="7NCgJ4RFR02j8C5epK9_-80" style="edgeStyle=elbowEdgeStyle;rounded=0;html=1;labelBackgroundColor=none;startArrow=none;startFill=0;startSize=8;endArrow=none;endFill=0;endSize=16;fontFamily=Verdana;fontSize=12;" edge="1" parent="1">
          <mxGeometry relative="1" as="geometry">
            <mxPoint x="1630" y="181" as="sourcePoint" />
            <mxPoint x="1530" y="180.67000000000002" as="targetPoint" />
          </mxGeometry>
        </mxCell>
        <mxCell id="7NCgJ4RFR02j8C5epK9_-81" style="edgeStyle=elbowEdgeStyle;rounded=0;html=1;labelBackgroundColor=none;startArrow=none;startFill=0;startSize=8;endArrow=none;endFill=0;endSize=16;fontFamily=Verdana;fontSize=12;entryX=0.5;entryY=0;entryDx=0;entryDy=0;" edge="1" parent="1" target="7NCgJ4RFR02j8C5epK9_-61">
          <mxGeometry relative="1" as="geometry">
            <mxPoint x="1500" y="180" as="sourcePoint" />
            <mxPoint x="1390" y="180.67000000000002" as="targetPoint" />
            <Array as="points">
              <mxPoint x="1260" y="290" />
            </Array>
          </mxGeometry>
        </mxCell>
        <mxCell id="7NCgJ4RFR02j8C5epK9_-82" style="edgeStyle=elbowEdgeStyle;rounded=0;html=1;labelBackgroundColor=none;startArrow=none;startFill=0;startSize=8;endArrow=none;endFill=0;endSize=16;fontFamily=Verdana;fontSize=12;" edge="1" parent="1">
          <mxGeometry relative="1" as="geometry">
            <mxPoint x="1640" y="659.3299999999999" as="sourcePoint" />
            <mxPoint x="1530" y="660" as="targetPoint" />
          </mxGeometry>
        </mxCell>
        <mxCell id="7NCgJ4RFR02j8C5epK9_-84" value="JDBC" style="shape=component;align=center;spacingLeft=36;rounded=0;shadow=0;comic=0;labelBackgroundColor=none;strokeWidth=1;fontFamily=Verdana;fontSize=12;html=1;" vertex="1" parent="1">
          <mxGeometry x="1910" y="410" width="140" height="60" as="geometry" />
        </mxCell>
        <mxCell id="7NCgJ4RFR02j8C5epK9_-89" style="edgeStyle=orthogonalEdgeStyle;rounded=0;orthogonalLoop=1;jettySize=auto;html=1;exitX=0;exitY=0.5;exitDx=0;exitDy=0;exitPerimeter=0;entryX=1;entryY=0.5;entryDx=0;entryDy=0;verticalAlign=middle;" edge="1" parent="1" source="7NCgJ4RFR02j8C5epK9_-88" target="7NCgJ4RFR02j8C5epK9_-84">
          <mxGeometry relative="1" as="geometry" />
        </mxCell>
        <mxCell id="7NCgJ4RFR02j8C5epK9_-88" value="Base De Datos" style="shape=cylinder3;whiteSpace=wrap;html=1;boundedLbl=1;backgroundOutline=1;size=15;" vertex="1" parent="1">
          <mxGeometry x="2220" y="400" width="60" height="80" as="geometry" />
        </mxCell>
        <mxCell id="7NCgJ4RFR02j8C5epK9_-90" value="Venta" style="text;html=1;strokeColor=none;fillColor=none;align=center;verticalAlign=middle;whiteSpace=wrap;rounded=0;" vertex="1" parent="1">
          <mxGeometry x="1485" y="460" width="60" height="30" as="geometry" />
        </mxCell>
        <mxCell id="7NCgJ4RFR02j8C5epK9_-91" value="Pedidos" style="text;html=1;strokeColor=none;fillColor=none;align=center;verticalAlign=middle;whiteSpace=wrap;rounded=0;" vertex="1" parent="1">
          <mxGeometry x="1485" y="680" width="60" height="30" as="geometry" />
        </mxCell>
        <mxCell id="7NCgJ4RFR02j8C5epK9_-92" value="Compra" style="text;html=1;strokeColor=none;fillColor=none;align=center;verticalAlign=middle;whiteSpace=wrap;rounded=0;" vertex="1" parent="1">
          <mxGeometry x="1485" y="200" width="60" height="30" as="geometry" />
        </mxCell>
        <mxCell id="7NCgJ4RFR02j8C5epK9_-93" value="Productos" style="text;html=1;strokeColor=none;fillColor=none;align=center;verticalAlign=middle;whiteSpace=wrap;rounded=0;" vertex="1" parent="1">
          <mxGeometry x="1030" y="460" width="60" height="30" as="geometry" />
        </mxCell>
        <mxCell id="7NCgJ4RFR02j8C5epK9_-94" value="Pedido" style="text;html=1;strokeColor=none;fillColor=none;align=center;verticalAlign=middle;whiteSpace=wrap;rounded=0;" vertex="1" parent="1">
          <mxGeometry x="610" y="850" width="60" height="30" as="geometry" />
        </mxCell>
        <mxCell id="7NCgJ4RFR02j8C5epK9_-95" value="Pedido" style="text;html=1;strokeColor=none;fillColor=none;align=center;verticalAlign=middle;whiteSpace=wrap;rounded=0;" vertex="1" parent="1">
          <mxGeometry x="900" y="240" width="60" height="30" as="geometry" />
        </mxCell>
        <mxCell id="7NCgJ4RFR02j8C5epK9_-96" value="Venta" style="text;html=1;strokeColor=none;fillColor=none;align=center;verticalAlign=middle;whiteSpace=wrap;rounded=0;" vertex="1" parent="1">
          <mxGeometry x="570" y="330" width="60" height="30" as="geometry" />
        </mxCell>
        <mxCell id="7NCgJ4RFR02j8C5epK9_-98" value="" style="edgeStyle=orthogonalEdgeStyle;rounded=0;html=1;labelBackgroundColor=none;startArrow=none;startFill=0;startSize=8;endArrow=none;endFill=0;endSize=16;fontFamily=Verdana;fontSize=12;entryX=0.5;entryY=1;entryDx=0;entryDy=0;" edge="1" parent="1" target="7NCgJ4RFR02j8C5epK9_-97">
          <mxGeometry relative="1" as="geometry">
            <Array as="points">
              <mxPoint x="569.5" y="690" />
            </Array>
            <mxPoint x="569.5" y="650" as="sourcePoint" />
            <mxPoint x="569.5" y="580" as="targetPoint" />
          </mxGeometry>
        </mxCell>
        <mxCell id="7NCgJ4RFR02j8C5epK9_-97" value="Subasta" style="text;html=1;strokeColor=none;fillColor=none;align=center;verticalAlign=middle;whiteSpace=wrap;rounded=0;" vertex="1" parent="1">
          <mxGeometry x="540" y="580" width="60" height="30" as="geometry" />
        </mxCell>
        <mxCell id="7NCgJ4RFR02j8C5epK9_-99" value="Inicio De Sesion" style="text;html=1;strokeColor=none;fillColor=none;align=center;verticalAlign=middle;whiteSpace=wrap;rounded=0;" vertex="1" parent="1">
          <mxGeometry x="355" y="460" width="60" height="30" as="geometry" />
        </mxCell>
        <mxCell id="7NCgJ4RFR02j8C5epK9_-100" value="Envio" style="text;html=1;strokeColor=none;fillColor=none;align=center;verticalAlign=middle;whiteSpace=wrap;rounded=0;" vertex="1" parent="1">
          <mxGeometry x="695" y="80" width="60" height="30" as="geometry" />
        </mxCell>
        <mxCell id="7NCgJ4RFR02j8C5epK9_-102" value="Envio" style="text;html=1;strokeColor=none;fillColor=none;align=center;verticalAlign=middle;whiteSpace=wrap;rounded=0;" vertex="1" parent="1">
          <mxGeometry x="670" y="525" width="60" height="30" as="geometry" />
        </mxCell>
        <mxCell id="7NCgJ4RFR02j8C5epK9_-103" value="Compra" style="text;html=1;strokeColor=none;fillColor=none;align=center;verticalAlign=middle;whiteSpace=wrap;rounded=0;" vertex="1" parent="1">
          <mxGeometry x="690" y="460" width="60" height="30" as="geometry" />
        </mxCell>
        <mxCell id="7NCgJ4RFR02j8C5epK9_-105" value="Usuario" style="text;html=1;strokeColor=none;fillColor=none;align=center;verticalAlign=middle;whiteSpace=wrap;rounded=0;" vertex="1" parent="1">
          <mxGeometry x="705" y="350" width="60" height="30" as="geometry" />
        </mxCell>
        <mxCell id="7NCgJ4RFR02j8C5epK9_-106" value="&lt;h3&gt;&lt;b&gt;&lt;font style=&quot;font-size: 18px;&quot; face=&quot;Times New Roman&quot;&gt;Base De Datos&lt;/font&gt;&lt;/b&gt;&lt;/h3&gt;" style="text;html=1;strokeColor=none;fillColor=none;align=center;verticalAlign=middle;whiteSpace=wrap;rounded=0;fontColor=#0000CC;" vertex="1" parent="1">
          <mxGeometry x="1850" y="-40" width="140" height="30" as="geometry" />
        </mxCell>
        <mxCell id="7NCgJ4RFR02j8C5epK9_-107" style="edgeStyle=elbowEdgeStyle;rounded=0;html=1;labelBackgroundColor=none;startArrow=none;startFill=0;startSize=8;endArrow=none;endFill=0;endSize=16;fontFamily=Verdana;fontSize=12;entryX=0.75;entryY=0;entryDx=0;entryDy=0;" edge="1" parent="1" target="7NCgJ4RFR02j8C5epK9_-33">
          <mxGeometry relative="1" as="geometry">
            <mxPoint x="1340" y="180" as="sourcePoint" />
            <mxPoint x="1100" y="12" as="targetPoint" />
            <Array as="points">
              <mxPoint x="1340" y="30" />
            </Array>
          </mxGeometry>
        </mxCell>
        <mxCell id="7NCgJ4RFR02j8C5epK9_-108" style="edgeStyle=elbowEdgeStyle;rounded=0;html=1;labelBackgroundColor=none;startArrow=none;startFill=0;startSize=8;endArrow=none;endFill=0;endSize=16;fontFamily=Verdana;fontSize=12;entryX=0.5;entryY=1;entryDx=0;entryDy=0;" edge="1" parent="1" target="7NCgJ4RFR02j8C5epK9_-42">
          <mxGeometry relative="1" as="geometry">
            <mxPoint x="1370" y="660" as="sourcePoint" />
            <mxPoint x="870" y="870" as="targetPoint" />
            <Array as="points">
              <mxPoint x="1370" y="760" />
            </Array>
          </mxGeometry>
        </mxCell>
      </root>
    </mxGraphModel>
  </diagram>
</mxfile>
